<svg height="512" viewBox="0 0 256 256" width="512" xmlns="http://www.w3.org/2000/svg"><rect fill="#cecece" height="151.106" rx="13.665" width="219.26" x="18.37" y="26.926"/><path d="m28.37 164.368v-123.777a13.681 13.681 0 0 1 13.665-13.665h-10a13.681 13.681 0 0 0 -13.665 13.665v123.777a13.681 13.681 0 0 0 13.665 13.665h10a13.681 13.681 0 0 1 -13.665-13.665z" fill="#afafaf"/><path d="m227.63 164.368v-123.777a13.681 13.681 0 0 0 -13.665-13.665h10a13.681 13.681 0 0 1 13.665 13.665v123.777a13.681 13.681 0 0 1 -13.665 13.665h-10a13.681 13.681 0 0 0 13.665-13.665z" fill="#e2e2e2"/><rect fill="#63bce7" height="122.288" rx="5.256" width="202.442" x="26.779" y="35.335"/><path d="m36.779 152.368v-111.777a5.271 5.271 0 0 1 5.256-5.256h-10a5.271 5.271 0 0 0 -5.256 5.256v111.777a5.271 5.271 0 0 0 5.256 5.256h10a5.271 5.271 0 0 1 -5.256-5.256z" fill="#6377e7"/><path d="m219.221 152.368v-111.777a5.271 5.271 0 0 0 -5.256-5.256h10a5.271 5.271 0 0 1 5.256 5.256v111.777a5.271 5.271 0 0 1 -5.256 5.256h-10a5.271 5.271 0 0 0 5.256-5.256z" fill="#63e2e7"/><circle cx="128" cy="149.872" fill="#9e9e9e" r="39.978"/><path d="m98.022 149.872a39.976 39.976 0 0 1 34.978-39.656 39.978 39.978 0 1 0 0 79.311 39.976 39.976 0 0 1 -34.978-39.655z" fill="#707070"/><path d="m109.249 189.849h37.5a44.65 44.65 0 0 1 44.651 44.651 0 0 0 0 1 0 0h-126.8a0 0 0 0 1 0 0 44.65 44.65 0 0 1 44.649-44.651z" fill="#f8af23"/><path d="m119.249 189.849h-10a44.649 44.649 0 0 0 -44.649 44.651h10a44.649 44.649 0 0 1 44.649-44.651z" fill="#f87023"/><rect fill="#f8af23" height="85.951" rx="10" width="155" x="50.5" y="10.528"/><path d="m60.5 86.479v-65.951a10 10 0 0 1 10-10h-10a10 10 0 0 0 -10 10v65.951a10 10 0 0 0 10 10h10a10 10 0 0 1 -10-10z" fill="#f87023"/><path d="m195.5 86.479v-65.951a10 10 0 0 0 -10-10h10a10 10 0 0 1 10 10v65.951a10 10 0 0 1 -10 10h-10a10 10 0 0 0 10-10z" fill="#f8d323"/><path d="m67.55 26.926h120.9v31.74h-120.9z" fill="#f46275"/><path d="m67.55 67h70.117v3.667h-70.117z" fill="#3f3679"/><path d="m67.55 74.75h70.117v3.667h-70.117z" fill="#3f3679"/><path d="m67.55 82.5h70.117v3.667h-70.117z" fill="#3f3679"/><path d="m147 67h41.45v22h-41.45z" fill="#cecece"/><path d="m34.129 115.617c.208.58.443 1.138.7 1.691l-5.2 5.2 10.224 10.222 5.2-5.2c.553.257 1.116.493 1.691.7v7.355h14.456v-7.355c.575-.208 1.138-.443 1.691-.7l5.2 5.2 10.219-10.223-5.2-5.2c.257-.553.493-1.111.7-1.691h7.355v-14.452h-7.354c-.208-.575-.443-1.138-.7-1.691l5.2-5.2-10.224-10.222-5.2 5.2c-.553-.257-1.116-.5-1.691-.706v-7.345h-14.453v7.35c-.575.208-1.138.449-1.691.706l-5.2-5.2-10.222 10.218 5.2 5.2c-.257.553-.493 1.116-.7 1.691h-7.35v14.453z" fill="#f46275"/><path d="m26.779 115.617v-14.453h7.35c.208-.575.443-1.138.7-1.691l-5.2-5.2 10.224-10.222 5 5-5.22 5.22 5.2 5.2c-.257.553-.493 1.116-.7 1.691h-7.35v14.453h7.35c.208.58.443 1.138.7 1.691l-5.2 5.2 5.223 5.223-5 5-10.226-10.222 5.2-5.2c-.257-.553-.493-1.111-.7-1.691z" fill="#f43075"/><circle cx="53.973" cy="108.391" fill="#9e9e9e" r="9.204"/><g fill="#3f3679"><path d="m27.323 243.972h-18a1.5 1.5 0 1 0 0 3h18a1.5 1.5 0 1 0 0-3z"/><path d="m246.68 243.972h-18a1.5 1.5 0 0 0 0 3h18a1.5 1.5 0 0 0 0-3z"/><path d="m218.479 243.972h-180.958a1.5 1.5 0 0 0 0 3h180.958a1.5 1.5 0 0 0 0-3z"/><path d="m9.32 236h237.36a1.5 1.5 0 0 0 0-3h-53.818a46.2 46.2 0 0 0 -46.111-44.65h-3.291a41.592 41.592 0 0 0 13.494-8.817h67.012a15.182 15.182 0 0 0 15.165-15.165v-123.777a15.182 15.182 0 0 0 -15.165-15.165h-16.966v-4.9a11.513 11.513 0 0 0 -11.5-11.5h-135a11.513 11.513 0 0 0 -11.5 11.502v4.9h-16.965a15.182 15.182 0 0 0 -15.165 15.163v123.777a15.182 15.182 0 0 0 15.165 15.165h66.9c.034 0 .065-.008.1-.01a41.588 41.588 0 0 0 13.5 8.827h-3.285a46.2 46.2 0 0 0 -46.112 44.65h-53.818a1.5 1.5 0 1 0 0 3zm214.645-207.574a12.179 12.179 0 0 1 12.165 12.165v123.777a12.178 12.178 0 0 1 -12.165 12.165h-64.224a41.366 41.366 0 0 0 8.683-17.409h55.541a6.764 6.764 0 0 0 6.756-6.756v-111.777a6.763 6.763 0 0 0 -6.756-6.755h-16.965v-5.41zm-137.443 121.446a41.626 41.626 0 0 0 .472 6.252h-54.959a3.76 3.76 0 0 1 -3.756-3.756v-29.24a1.48 1.48 0 0 0 .294.442l10.221 10.221a1.5 1.5 0 0 0 2.121 0l4.33-4.33v6.124a1.5 1.5 0 0 0 1.5 1.5h14.455a1.5 1.5 0 0 0 1.5-1.5v-6.124l4.331 4.33a1.5 1.5 0 0 0 2.121 0l10.221-10.221a1.5 1.5 0 0 0 0-2.121l-4.33-4.33h6.124a1.5 1.5 0 0 0 1.5-1.5v-14.455a1.5 1.5 0 0 0 -1.5-1.5h-6.125l1.685-1.685h118.773a11.513 11.513 0 0 0 11.5-11.5v-49.644h16.965a3.76 3.76 0 0 1 3.756 3.755v111.778a3.76 3.76 0 0 1 -3.756 3.756h-54.959a41.479 41.479 0 1 0 -82.484-6.252zm-25.835-59.914c.508.185 1.021.4 1.569.655a1.5 1.5 0 0 0 1.695-.3l4.141-4.141 8.1 8.1-4.142 4.142a1.5 1.5 0 0 0 -.3 1.695c.256.548.47 1.061.655 1.569a1.5 1.5 0 0 0 1.409.986h5.851v11.455h-5.849a1.5 1.5 0 0 0 -1.409.986c-.186.51-.4 1.023-.655 1.569a1.5 1.5 0 0 0 .3 1.695l4.141 4.141-8.1 8.1-4.141-4.141a1.5 1.5 0 0 0 -1.695-.3c-.549.256-1.062.47-1.568.654a1.5 1.5 0 0 0 -.987 1.41v5.851h-11.457v-5.851a1.5 1.5 0 0 0 -.987-1.41c-.507-.185-1.021-.4-1.568-.654a1.5 1.5 0 0 0 -1.695.3l-4.141 4.141-8.1-8.1 4.141-4.141a1.5 1.5 0 0 0 .3-1.695c-.256-.547-.47-1.061-.654-1.568a1.5 1.5 0 0 0 -1.41-.987h-5.852v-11.455h5.851a1.5 1.5 0 0 0 1.41-.987c.184-.506.4-1.019.654-1.568a1.5 1.5 0 0 0 -.3-1.695l-4.141-4.141 8.1-8.1 4.147 4.141a1.5 1.5 0 0 0 1.695.3c.546-.255 1.06-.469 1.569-.655a1.5 1.5 0 0 0 .986-1.409v-5.85h11.45v5.851a1.5 1.5 0 0 0 .987 1.407zm-11.687-10.258h-2.255a1.5 1.5 0 0 0 -1.5 1.5v6.124l-4.33-4.33a1.5 1.5 0 0 0 -2.121 0l-10.221 10.218a1.48 1.48 0 0 0 -.294.442v-53.063a3.76 3.76 0 0 1 3.756-3.755h16.965zm-20.721 15.191a1.481 1.481 0 0 0 .294.443l4.33 4.331h-4.624zm4.621 22.228-4.33 4.33a1.48 1.48 0 0 0 -.294.442v-4.772zm27.6-105.091h135a8.51 8.51 0 0 1 8.5 8.5v65.951a8.51 8.51 0 0 1 -8.5 8.5h-115.892a1.48 1.48 0 0 0 -.235-1.767l-10.221-10.221a1.5 1.5 0 0 0 -2.121 0l-4.331 4.331v-6.122a1.5 1.5 0 0 0 -1.5-1.5h-9.2v-59.172a8.51 8.51 0 0 1 8.5-8.5zm-40.63 152.34v-123.777a12.179 12.179 0 0 1 12.165-12.165h16.965v5.409h-16.965a6.763 6.763 0 0 0 -6.756 6.755v111.778a6.764 6.764 0 0 0 6.756 6.756h55.54a41.366 41.366 0 0 0 8.683 17.409h-64.223a12.178 12.178 0 0 1 -12.165-12.165zm69.652-14.5a38.478 38.478 0 1 1 38.478 38.481 38.522 38.522 0 0 1 -38.478-38.477zm19.728 41.478h37.5a43.2 43.2 0 0 1 43.124 41.654h-123.748a43.2 43.2 0 0 1 43.124-41.651z"/><path d="m67.55 60.167h120.9a1.5 1.5 0 0 0 1.5-1.5v-31.741a1.5 1.5 0 0 0 -1.5-1.5h-120.9a1.5 1.5 0 0 0 -1.5 1.5v31.74a1.5 1.5 0 0 0 1.5 1.501zm119.4-3.444-53.043-13.923 53.043-13.929zm-10.121.444h-97.658l48.829-12.82zm-48.829-15.921-48.831-12.82h97.662zm-5.907 1.554-53.043 13.922v-27.851z"/><path d="m188.45 65.5h-41.45a1.5 1.5 0 0 0 -1.5 1.5v22a1.5 1.5 0 0 0 1.5 1.5h41.45a1.5 1.5 0 0 0 1.5-1.5v-22a1.5 1.5 0 0 0 -1.5-1.5zm-39.95 3.994 16.026 8.506-16.026 8.506zm4.525-.994h29.4l-14.7 7.8zm14.7 11.2 14.7 7.8h-29.4zm3.2-1.7 16.026-8.506v17.012z"/><path d="m43.269 108.392a10.7 10.7 0 1 0 10.7-10.7 10.716 10.716 0 0 0 -10.7 10.7zm18.408 0a7.7 7.7 0 1 1 -7.7-7.7 7.713 7.713 0 0 1 7.7 7.7z"/></g></svg>